<svg width="30" height="30" viewBox="0 0 30 30" fill="none" xmlns="http://www.w3.org/2000/svg">
<path d="M5.13197 22.6341L4.33815 22.026H4.33815L5.13197 22.6341ZM6.58569 18.5471L5.58569 18.5347V18.5471H6.58569ZM6.6162 16.076L7.6162 16.0883V16.076H6.6162ZM24.8758 22.654L25.6817 22.0619L25.6817 22.0619L24.8758 22.654ZM23.4768 18.5471L22.4768 18.5341V18.5471H23.4768ZM23.5073 16.1984L24.5073 16.2114V16.1984H23.5073ZM5.92579 23.2423C6.75489 22.1601 7.58569 20.5355 7.58569 18.5471H5.58569C5.58569 19.9693 4.98852 21.1771 4.33815 22.026L5.92579 23.2423ZM7.58561 18.5594L7.61613 16.0883L5.61628 16.0636L5.58577 18.5347L7.58561 18.5594ZM25.6817 22.0619C25.0589 21.2142 24.4768 19.9933 24.4768 18.5471H22.4768C22.4768 20.535 23.2734 22.1618 24.0699 23.246L25.6817 22.0619ZM24.4767 18.56L24.5072 16.2114L22.5074 16.1854L22.4769 18.5341L24.4767 18.56ZM24.5073 16.1984C24.5073 10.9794 20.2427 6.76304 15 6.76304V8.76304C19.1542 8.76304 22.5073 12.1 22.5073 16.1984H24.5073ZM24.3667 24.7992C25.1448 24.7992 25.6445 24.2567 25.8502 23.7775C26.0546 23.3015 26.0937 22.6226 25.6817 22.0619L24.0699 23.246C24.0167 23.1736 24.0026 23.1048 24.0004 23.0663C23.9983 23.0303 24.0049 23.0061 24.0124 22.9885C24.0197 22.9716 24.0404 22.932 24.0947 22.8898C24.1555 22.8424 24.2517 22.7992 24.3667 22.7992V24.7992ZM7.6162 16.076C7.6162 12.0451 10.914 8.76304 15 8.76304V6.76304C9.82549 6.76304 5.6162 10.9246 5.6162 16.076H7.6162ZM5.63454 22.7992C5.75227 22.7992 5.84984 22.8443 5.91025 22.8922C5.96385 22.9347 5.9831 22.9735 5.98925 22.9883C5.99574 23.0039 6.00191 23.0263 5.99946 23.0615C5.99682 23.0992 5.98191 23.169 5.92579 23.2423L4.33815 22.026C3.90817 22.5872 3.94302 23.277 4.1429 23.7571C4.34389 24.2398 4.84348 24.7992 5.63454 24.7992V22.7992ZM24.3667 22.7992H5.63454V24.7992H24.3667V22.7992ZM18 23.7992C18 25.2189 16.7315 26.4999 15 26.4999V28.4999C17.6868 28.4999 20 26.4671 20 23.7992H18ZM15 26.4999C13.2685 26.4999 12 25.2189 12 23.7992H10C10 26.4671 12.3132 28.4999 15 28.4999V26.4999ZM16.6667 5.13146C16.6667 6.02011 15.933 6.76304 15 6.76304V8.76304C17.0125 8.76304 18.6667 7.14957 18.6667 5.13146H16.6667ZM15 6.76304C14.067 6.76304 13.3333 6.02011 13.3333 5.13146H11.3333C11.3333 7.14957 12.9875 8.76304 15 8.76304V6.76304ZM13.3333 5.13146C13.3333 4.24281 14.067 3.49988 15 3.49988V1.49988C12.9875 1.49988 11.3333 3.11335 11.3333 5.13146H13.3333ZM15 3.49988C15.933 3.49988 16.6667 4.24281 16.6667 5.13146H18.6667C18.6667 3.11335 17.0125 1.49988 15 1.49988V3.49988Z" fill="#94A3B8"/>
</svg>
