<svg width="21" height="20" viewBox="0 0 21 20" fill="none" xmlns="http://www.w3.org/2000/svg">
<path d="M11.6092 8.37324C11.7898 8.89516 12.3593 9.17186 12.8812 8.99125C13.4032 8.81065 13.6798 8.24114 13.4992 7.71922L11.6092 8.37324ZM11.2042 7.02771L11.2482 6.02868C11.2335 6.02804 11.2189 6.02771 11.2042 6.02771V7.02771ZM9.20422 10.0833V11.0833V10.0833ZM11.2042 13.1388V14.1388V13.1388ZM9.20422 13.1388L9.16029 14.1379C9.17492 14.1385 9.18957 14.1388 9.20422 14.1388V13.1388ZM8.79924 11.7933C8.61864 11.2714 8.04913 10.9947 7.52721 11.1753C7.00529 11.3559 6.7286 11.9254 6.9092 12.4473L8.79924 11.7933ZM11.2042 5.49994C11.2042 4.94765 10.7565 4.49994 10.2042 4.49994C9.65194 4.49994 9.20422 4.94765 9.20422 5.49994H11.2042ZM9.20422 7.02771C9.20422 7.58 9.65194 8.02771 10.2042 8.02771C10.7565 8.02771 11.2042 7.58 11.2042 7.02771H9.20422ZM11.2042 13.1388C11.2042 12.5865 10.7565 12.1388 10.2042 12.1388C9.65194 12.1388 9.20422 12.5865 9.20422 13.1388H11.2042ZM9.20422 14.6666C9.20422 15.2189 9.65194 15.6666 10.2042 15.6666C10.7565 15.6666 11.2042 15.2189 11.2042 14.6666H9.20422ZM13.4992 7.71922C13.3355 7.24594 13.0354 6.83047 12.6346 6.52812L11.4301 8.1247C11.5105 8.18539 11.5739 8.2713 11.6092 8.37324L13.4992 7.71922ZM12.6346 6.52812C12.2337 6.22561 11.7508 6.05079 11.2482 6.02868L11.1603 8.02675C11.2559 8.03095 11.3499 8.06419 11.4301 8.1247L12.6346 6.52812ZM11.2042 6.02771H9.20422V8.02771H11.2042V6.02771ZM9.20422 6.02771C8.5352 6.02771 7.89737 6.29858 7.43 6.7746L8.85713 8.17578C8.95237 8.07878 9.0776 8.02771 9.20422 8.02771V6.02771ZM7.43 6.7746C6.96324 7.25 6.70422 7.89094 6.70422 8.55549H8.70422C8.70422 8.40966 8.76127 8.27341 8.85713 8.17578L7.43 6.7746ZM6.70422 8.55549C6.70422 9.22004 6.96324 9.86098 7.43 10.3364L8.85713 8.9352C8.76127 8.83758 8.70422 8.70133 8.70422 8.55549H6.70422ZM7.43 10.3364C7.89737 10.8124 8.5352 11.0833 9.20422 11.0833V9.08327C9.0776 9.08327 8.95237 9.03221 8.85713 8.9352L7.43 10.3364ZM9.20422 11.0833H11.2042V9.08327H9.20422V11.0833ZM11.2042 11.0833C11.3308 11.0833 11.4561 11.1343 11.5513 11.2313L12.9784 9.83015C12.5111 9.35413 11.8732 9.08327 11.2042 9.08327V11.0833ZM11.5513 11.2313C11.6472 11.329 11.7042 11.4652 11.7042 11.611H13.7042C13.7042 10.9465 13.4452 10.3056 12.9784 9.83015L11.5513 11.2313ZM11.7042 11.611C11.7042 11.7569 11.6472 11.8931 11.5513 11.9908L12.9784 13.3919C13.4452 12.9165 13.7042 12.2756 13.7042 11.611H11.7042ZM11.5513 11.9908C11.4561 12.0878 11.3308 12.1388 11.2042 12.1388V14.1388C11.8732 14.1388 12.5111 13.868 12.9784 13.3919L11.5513 11.9908ZM11.2042 12.1388H9.20422V14.1388H11.2042V12.1388ZM9.24816 12.1398C9.15258 12.1356 9.05857 12.1023 8.97836 12.0418L7.77381 13.6384C8.17478 13.9409 8.65761 14.1158 9.16029 14.1379L9.24816 12.1398ZM8.97836 12.0418C8.89793 11.9812 8.83452 11.8952 8.79924 11.7933L6.9092 12.4473C7.07297 12.9206 7.37307 13.3361 7.77381 13.6384L8.97836 12.0418ZM9.20422 5.49994V7.02771H11.2042V5.49994H9.20422ZM9.20422 13.1388V14.6666H11.2042V13.1388H9.20422ZM17.2042 9.99994C17.2042 13.8659 14.0702 16.9999 10.2042 16.9999V18.9999C15.1748 18.9999 19.2042 14.9705 19.2042 9.99994H17.2042ZM10.2042 16.9999C6.33823 16.9999 3.20422 13.8659 3.20422 9.99994H1.20422C1.20422 14.9705 5.23366 18.9999 10.2042 18.9999V16.9999ZM3.20422 9.99994C3.20422 6.13394 6.33823 2.99994 10.2042 2.99994V0.999939C5.23366 0.999939 1.20422 5.02938 1.20422 9.99994H3.20422ZM10.2042 2.99994C14.0702 2.99994 17.2042 6.13394 17.2042 9.99994H19.2042C19.2042 5.02938 15.1748 0.999939 10.2042 0.999939V2.99994Z" fill="#94A3B8"/>
</svg>
