<svg width="24" height="27" viewBox="0 0 24 27" fill="none" xmlns="http://www.w3.org/2000/svg">
<path d="M24 23.4284C24 25.2546 22.5159 26.7387 20.6896 26.7387H6.20689C4.38068 26.7387 2.89655 25.2546 2.89655 23.4284V5.22151C2.89655 3.3953 4.38068 1.91116 6.20689 1.91116H20.6896C22.5159 1.91116 24 3.3953 24 5.22151V23.4284Z" fill="#F1F5F9"/>
<path d="M18.411 26.3249H3.92827C1.76 26.3249 0 24.5594 0 22.3967V4.18978C0 2.0215 1.76 0.261505 3.92827 0.261505H18.411C20.5793 0.261505 22.3393 2.02702 22.3393 4.18978V22.3967C22.3393 24.565 20.5738 26.3249 18.411 26.3249ZM3.9338 1.49736C2.44966 1.49736 1.24138 2.70564 1.24138 4.18978V22.3967C1.24138 23.8808 2.44966 25.0891 3.9338 25.0891H18.4166C19.9007 25.0891 21.109 23.8808 21.109 22.3967V4.18978C21.109 2.70564 19.9007 1.49736 18.4166 1.49736H3.9338Z" fill="#64748B"/>
<path d="M19.0345 6.04909H4.13792C3.79585 6.04909 3.51999 5.77323 3.51999 5.43116C3.51999 5.08909 3.79585 4.81323 4.13792 4.81323H19.0345C19.3765 4.81323 19.6524 5.08909 19.6524 5.43116C19.6524 5.77323 19.3765 6.04909 19.0345 6.04909Z" fill="#64748B"/>
<path d="M19.0345 9.35942H4.13792C3.79585 9.35942 3.51999 9.08356 3.51999 8.74149C3.51999 8.39942 3.79585 8.12357 4.13792 8.12357H19.0345C19.3765 8.12357 19.6524 8.39942 19.6524 8.74149C19.6524 9.08356 19.3765 9.35942 19.0345 9.35942Z" fill="#64748B"/>
<path d="M12.4359 13.4201L13.3959 15.3677L15.5421 15.6822L13.9917 17.1939L14.3559 19.3291L12.4359 18.3194L10.5159 19.3291L10.88 17.1939L9.32416 15.6822L11.4703 15.3677L12.4304 13.4201H12.4359Z" fill="white"/>
<path d="M9.27448 19.5388C9.14759 19.5388 9.0207 19.5002 8.91036 19.4229C8.72277 19.285 8.62346 19.0477 8.6676 18.816L8.97656 17.0008L7.65794 15.7153C7.4869 15.5498 7.42622 15.3015 7.49795 15.0808C7.56967 14.8546 7.76276 14.6891 8 14.6615L9.82621 14.3967L10.6427 12.7415C10.7476 12.5263 10.9628 12.3939 11.2 12.3939C11.4372 12.3939 11.6524 12.5263 11.7572 12.7415L12.5738 14.3967L14.4 14.6615C14.6317 14.6946 14.8248 14.8546 14.9021 15.0808C14.9738 15.3071 14.9131 15.5498 14.7476 15.7153L13.429 17.0008L13.7434 18.816C13.7821 19.0477 13.6883 19.285 13.4952 19.4229C13.3021 19.5608 13.0483 19.5829 12.8442 19.467L11.211 18.6119L9.57792 19.4726C9.48413 19.5222 9.39036 19.5443 9.29105 19.5443L9.27448 19.5388ZM9.42346 15.6988L10.0745 16.3332C10.2179 16.4767 10.2897 16.6808 10.251 16.885L10.0965 17.7843L10.9021 17.3594C11.0841 17.2656 11.2993 17.2656 11.4814 17.3594L12.2869 17.7843L12.1324 16.885C12.0993 16.6808 12.1655 16.4767 12.309 16.3332L12.96 15.6988L12.0552 15.5663C11.851 15.5387 11.68 15.4119 11.5862 15.2298L11.1835 14.4132L10.7807 15.2298C10.6924 15.4119 10.5159 15.5387 10.3172 15.5663L9.41241 15.6988H9.42346Z" fill="#64748B"/>
</svg>
