<svg width="24" height="34" viewBox="0 0 24 34" fill="none" xmlns="http://www.w3.org/2000/svg">
<path d="M24 9.75268C22.7561 5.34624 18.7081 2.10641 13.901 2.10641C8.11011 2.10641 3.4155 6.80099 3.4155 12.5989C3.4155 13.8288 4.15345 15.5225 4.54701 16.6118L12.7766 33.0499C13.2334 33.9635 14.5476 33.9635 15.0044 33.0499L23.2621 16.6118" fill="#F1F5F9"/>
<path d="M11.2586 33.5629C10.4855 33.5629 9.78974 33.085 9.43835 32.3893L1.20881 15.9372C1.20881 15.9372 1.18066 15.8669 1.17363 15.8388C1.10335 15.642 1.02607 15.4171 0.934711 15.1852C0.52007 14.0748 0 12.6903 0 11.5448C0 5.32515 5.06002 0.265137 11.2796 0.265137C16.3115 0.265137 20.7742 3.64552 22.1376 8.48065C22.2571 8.90232 22.0111 9.33806 21.5895 9.45753C21.1748 9.577 20.7321 9.33101 20.6126 8.90934C19.446 4.74887 15.6017 1.83936 11.2726 1.83936C5.92443 1.83936 1.57422 6.18957 1.57422 11.5377C1.57422 12.3951 2.03806 13.625 2.41053 14.6159C2.49487 14.8408 2.57219 15.0517 2.64246 15.2414L10.8509 31.6373C10.9634 31.8622 11.1742 31.8833 11.2586 31.8833C11.3429 31.8833 11.5538 31.8622 11.6662 31.6373L19.9239 15.1992C20.1207 14.8057 20.5915 14.6511 20.985 14.8478C21.3716 15.0446 21.5332 15.5225 21.3364 15.9091L13.0787 32.3893C12.7274 33.078 12.0316 33.5559 11.2586 33.5559V33.5629Z" fill="#64748B"/>
<path d="M10.6612 14.8479C10.2255 14.8479 9.87407 14.4965 9.87407 14.0607V8.78989C9.87407 8.35416 10.2255 8.00278 10.6612 8.00278C11.0969 8.00278 11.4483 8.35416 11.4483 8.78989V14.0607C11.4483 14.4965 11.0969 14.8479 10.6612 14.8479Z" fill="#64748B"/>
<path d="M13.5566 12.4795H8.28577C7.85004 12.4795 7.49866 12.1281 7.49866 11.6924C7.49866 11.2566 7.85004 10.9052 8.28577 10.9052H13.5566C13.9924 10.9052 14.3438 11.2566 14.3438 11.6924C14.3438 12.1281 13.9924 12.4795 13.5566 12.4795Z" fill="#64748B"/>
</svg>
