<svg width="24" height="27" viewBox="0 0 24 27" fill="none" xmlns="http://www.w3.org/2000/svg">
<path d="M13.2414 5.37322V4.98702C13.2414 3.07254 12.149 1.91392 10.229 1.91392H6.37796C4.46348 1.91392 2.48279 3.07254 2.48279 4.98702V24.0546C2.48279 25.4394 4.03314 26.7415 5.41796 26.7415H21.9807C23.3656 26.7415 24 25.4394 24 24.0546V9.03115C24 7.64633 23.3656 6.46564 21.9807 6.46564H14.8524C14.2124 6.46564 13.2414 6.01322 13.2414 5.37322Z" fill="#F1F5F9"/>
<path d="M19.9117 26.3277H3.34897C1.5669 26.3277 0 24.8822 0 23.227V4.15944C0 2.00771 1.93103 0.258743 4.30896 0.258743H8.15999C10.3834 0.258743 12 1.89737 12 4.15944V4.54563C12 4.6615 12.3641 4.81047 12.7834 4.81047H19.9117C21.6938 4.81047 22.7586 6.53736 22.7586 8.20357V23.227C22.7586 25.0201 21.5614 26.3277 19.9117 26.3277ZM4.30896 1.50012C2.83586 1.50012 1.24138 2.5153 1.24138 4.15944V23.227C1.24138 24.2918 2.35587 25.0863 3.34897 25.0863H19.9117C21.0207 25.0863 21.5172 24.1539 21.5172 23.227V8.20357C21.5172 7.14426 20.9159 6.05185 19.9117 6.05185H12.7834C11.5917 6.05185 10.7586 5.43391 10.7586 4.54563V4.15944C10.7586 2.57047 9.71585 1.50012 8.15999 1.50012H4.30896Z" fill="#64748B"/>
<path d="M5.79309 26.7415H6.20136C7.35446 26.7415 8.27585 25.7208 8.27585 24.5677V12.5898C8.27585 11.6739 9.03173 11.0174 9.94759 11.0174H21.9476C22.8634 11.0174 23.5862 11.6739 23.5862 12.5898V24.8932C23.5862 25.8643 22.8083 26.7415 21.8372 26.7415H5.79309Z" fill="#E2E8F0"/>
<path d="M19.7683 26.3277H3.72413C3.38206 26.3277 3.1062 26.0519 3.1062 25.7098C3.1062 25.3677 3.38206 25.0919 3.72413 25.0919H4.1324C5.66068 25.0919 6.20689 23.7677 6.20689 22.5318V12.0601C6.20689 10.3111 8.03861 9.36771 9.75999 9.36771H19.7683C21.5835 9.36771 22.7586 10.427 22.7586 12.0601V23.2325C22.7586 24.998 21.4731 26.3332 19.7683 26.3332V26.3277ZM6.69241 25.0863H19.7738C20.789 25.0863 21.5228 24.3084 21.5228 23.227V12.0546C21.5228 10.8518 20.5738 10.6036 19.7738 10.6036H9.76552C8.87172 10.6036 7.45379 10.9953 7.45379 12.0546V22.5263C7.45379 23.558 7.17793 24.4353 6.69241 25.0863Z" fill="#64748B"/>
<path d="M14.6924 19.9167C14.3503 19.9167 14.0745 19.6408 14.0745 19.2987V15.1608C14.0745 14.8187 14.3503 14.5429 14.6924 14.5429C15.0345 14.5429 15.3103 14.8187 15.3103 15.1608V19.2987C15.3103 19.6408 15.0345 19.9167 14.6924 19.9167Z" fill="#64748B"/>
<path d="M16.9655 18.0518H12.8276C12.4855 18.0518 12.2097 17.776 12.2097 17.4339C12.2097 17.0918 12.4855 16.816 12.8276 16.816H16.9655C17.3076 16.816 17.5834 17.0918 17.5834 17.4339C17.5834 17.776 17.3076 18.0518 16.9655 18.0518Z" fill="#64748B"/>
</svg>
