<svg width="25" height="35" viewBox="0 0 25 35" fill="none" xmlns="http://www.w3.org/2000/svg">
<path d="M24.1202 10.249C22.8763 5.84261 18.8283 2.60278 14.0213 2.60278C8.23034 2.60278 3.53577 7.29737 3.53577 13.0953C3.53577 14.3252 4.27368 16.0189 4.66724 17.1082L12.8968 33.5463C13.3606 34.4599 14.6678 34.4599 15.1317 33.5463L23.3894 17.1082" fill="#F1F5F9"/>
<path d="M11.3788 34.0593C10.6058 34.0593 9.90296 33.5814 9.5586 32.8857L1.32903 16.4335C1.32903 16.4335 1.30092 16.3633 1.29389 16.3351C1.22362 16.1313 1.13929 15.9135 1.05495 15.6816C0.64031 14.5782 0.120239 13.1937 0.120239 12.0482C0.120239 5.82855 5.18028 0.768524 11.3999 0.768524C16.4318 0.768524 20.8945 4.1489 22.2579 8.98404C22.3773 9.40571 22.1314 9.84144 21.7097 9.96091C21.2951 10.0804 20.8523 9.83441 20.7328 9.41274C19.5662 5.25227 15.722 2.34275 11.3929 2.34275C6.0447 2.34275 1.69449 6.69298 1.69449 12.0411C1.69449 12.8985 2.1583 14.1284 2.53078 15.1193C2.61511 15.3442 2.69243 15.5551 2.76271 15.7448L10.9712 32.1407C11.0836 32.3656 11.2945 32.3867 11.3788 32.3867C11.4632 32.3867 11.674 32.3656 11.7864 32.1407L20.0511 15.7026C20.2479 15.3091 20.7188 15.1545 21.1123 15.3512C21.4989 15.548 21.6605 16.0259 21.4637 16.4125L13.206 32.8927C12.8546 33.5814 12.1589 34.0593 11.3858 34.0593H11.3788Z" fill="#64748B"/>
<path d="M6.83884 11.6616C6.83884 11.1064 7.01454 10.5513 7.37296 9.982C7.72435 9.41274 8.2444 8.94891 8.9261 8.57643C9.60077 8.20396 10.402 8.02124 11.3085 8.02124C12.1519 8.02124 12.8968 8.17585 13.5434 8.48508C14.1829 8.7943 14.6889 9.21597 15.0333 9.75711C15.3847 10.2912 15.5604 10.8745 15.5604 11.5C15.5604 11.992 15.462 12.4277 15.2582 12.8002C15.0544 13.1726 14.8154 13.4889 14.5413 13.763C14.2602 14.03 13.7683 14.4868 13.0585 15.1264C12.8617 15.3091 12.7 15.4637 12.5806 15.5972C12.4611 15.7378 12.3697 15.8643 12.3135 15.9767C12.2573 16.0892 12.2081 16.2016 12.18 16.3141C12.1448 16.4265 12.1027 16.6233 12.0324 16.9114C11.92 17.5158 11.5756 17.818 10.9993 17.818C10.6971 17.818 10.4441 17.7196 10.2333 17.5158C10.0295 17.319 9.92406 17.0239 9.92406 16.6373C9.92406 16.1454 9.99434 15.7237 10.149 15.3653C10.2965 15.0069 10.5003 14.6906 10.7533 14.4236C11.0063 14.1495 11.3366 13.8333 11.7653 13.4608C12.1378 13.1375 12.4049 12.8915 12.5735 12.7229C12.7422 12.5542 12.8757 12.3715 12.9882 12.1676C13.1006 11.9638 13.1569 11.746 13.1569 11.507C13.1569 11.0432 12.9812 10.6496 12.6368 10.3264C12.2924 10.0101 11.8497 9.84847 11.3015 9.84847C10.662 9.84847 10.1911 10.0101 9.88891 10.3334C9.58671 10.6567 9.33371 11.1275 9.12288 11.76C8.9261 12.4136 8.54661 12.7439 7.99844 12.7439C7.67516 12.7439 7.40107 12.6315 7.17618 12.3996C6.95129 12.1747 6.83884 11.9217 6.83884 11.6546V11.6616ZM11.0907 21.2125C10.7393 21.2125 10.4301 21.1 10.163 20.8681C9.89595 20.6432 9.76945 20.3199 9.76945 19.9053C9.76945 19.5398 9.89595 19.2306 10.149 18.9776C10.409 18.7246 10.7182 18.5981 11.0907 18.5981C11.4632 18.5981 11.7653 18.7246 12.0183 18.9776C12.2713 19.2236 12.3908 19.5328 12.3908 19.9053C12.3908 20.3129 12.2643 20.6292 12.0043 20.8611C11.7372 21.093 11.4421 21.2125 11.0977 21.2125H11.0907Z" fill="#64748B"/>
</svg>
