<svg width="61" height="60" viewBox="0 0 61 60" fill="none" xmlns="http://www.w3.org/2000/svg">
<path d="M15.5934 52.3357L38.2399 31.0214L48.897 41.6785M15.5934 52.3357H42.2363C46.6506 52.3357 50.2291 48.7572 50.2291 44.3428V31.0214M15.5934 52.3357C11.1791 52.3357 7.60059 48.7572 7.60059 44.3428V17.7C7.60059 13.2857 11.1791 9.70713 15.5934 9.70713H32.9113M47.5649 22.5714L47.5649 15.0357M47.5649 15.0357L47.5649 7.49997M47.5649 15.0357L40.0291 15.0357M47.5649 15.0357L55.1006 15.0357M23.5863 21.6964C23.5863 23.9036 21.797 25.6928 19.5899 25.6928C17.3827 25.6928 15.5934 23.9036 15.5934 21.6964C15.5934 19.4892 17.3827 17.7 19.5899 17.7C21.797 17.7 23.5863 19.4892 23.5863 21.6964Z" stroke="white" stroke-width="4" stroke-linecap="round" stroke-linejoin="round"/>
</svg>
