<svg width="24" height="25" viewBox="0 0 24 25" fill="none" xmlns="http://www.w3.org/2000/svg">
<path d="M3.41789 19.1054C3.02737 19.4959 3.02737 20.1291 3.41789 20.5196C3.80842 20.9101 4.44158 20.9101 4.83211 20.5196L3.41789 19.1054ZM8.625 15.3125L9.33211 14.6054C8.94158 14.2149 8.30842 14.2149 7.91789 14.6054L8.625 15.3125ZM10.875 17.5625L10.1679 18.2696C10.5584 18.6601 11.1916 18.6601 11.5821 18.2696L10.875 17.5625ZM15.9375 12.5L16.6446 11.7929C16.2541 11.4024 15.6209 11.4024 15.2304 11.7929L15.9375 12.5ZM19.7304 17.7071C20.1209 18.0976 20.7541 18.0976 21.1446 17.7071C21.5351 17.3166 21.5351 16.6834 21.1446 16.2929L19.7304 17.7071ZM4.83211 20.5196L9.33211 16.0196L7.91789 14.6054L3.41789 19.1054L4.83211 20.5196ZM7.91789 16.0196L10.1679 18.2696L11.5821 16.8554L9.33211 14.6054L7.91789 16.0196ZM11.5821 18.2696L16.6446 13.2071L15.2304 11.7929L10.1679 16.8554L11.5821 18.2696ZM15.2304 13.2071L19.7304 17.7071L21.1446 16.2929L16.6446 11.7929L15.2304 13.2071ZM6.375 4.5H17.625V2.5H6.375V4.5ZM20 6.875V18.125H22V6.875H20ZM17.625 20.5H6.375V22.5H17.625V20.5ZM4 18.125V6.875H2V18.125H4ZM6.375 20.5C5.06332 20.5 4 19.4367 4 18.125H2C2 20.5412 3.95875 22.5 6.375 22.5V20.5ZM20 18.125C20 19.4367 18.9367 20.5 17.625 20.5V22.5C20.0412 22.5 22 20.5412 22 18.125H20ZM17.625 4.5C18.9367 4.5 20 5.56332 20 6.875H22C22 4.45875 20.0412 2.5 17.625 2.5V4.5ZM6.375 2.5C3.95875 2.5 2 4.45875 2 6.875H4C4 5.56332 5.06332 4.5 6.375 4.5V2.5ZM8.75 8.5625C8.75 8.9422 8.4422 9.25 8.0625 9.25V11.25C9.54677 11.25 10.75 10.0468 10.75 8.5625H8.75ZM8.0625 9.25C7.6828 9.25 7.375 8.9422 7.375 8.5625H5.375C5.375 10.0468 6.57823 11.25 8.0625 11.25V9.25ZM7.375 8.5625C7.375 8.1828 7.6828 7.875 8.0625 7.875V5.875C6.57823 5.875 5.375 7.07823 5.375 8.5625H7.375ZM8.0625 7.875C8.4422 7.875 8.75 8.1828 8.75 8.5625H10.75C10.75 7.07823 9.54677 5.875 8.0625 5.875V7.875Z" fill="#64748B"/>
</svg>
