<svg width="26" height="27" viewBox="0 0 24 25" fill="white" xmlns="http://www.w3.org/2000/svg">
<path d="M12 3.0754C15.2063 3.0754 15.5859 3.08946 16.8469 3.14571C18.0188 3.19727 18.6516 3.39415 19.0734 3.55821C19.6313 3.77383 20.0344 4.03633 20.4516 4.45352C20.8734 4.8754 21.1313 5.27383 21.3469 5.83165C21.5109 6.25352 21.7078 6.89102 21.7594 8.05821C21.8156 9.32383 21.8297 9.70352 21.8297 12.9051C21.8297 16.1113 21.8156 16.491 21.7594 17.752C21.7078 18.9238 21.5109 19.5566 21.3469 19.9785C21.1313 20.5363 20.8688 20.9395 20.4516 21.3566C20.0297 21.7785 19.6313 22.0363 19.0734 22.252C18.6516 22.416 18.0141 22.6129 16.8469 22.6645C15.5813 22.7207 15.2016 22.7348 12 22.7348C8.79375 22.7348 8.41406 22.7207 7.15313 22.6645C5.98125 22.6129 5.34844 22.416 4.92656 22.252C4.36875 22.0363 3.96563 21.7738 3.54844 21.3566C3.12656 20.9348 2.86875 20.5363 2.65313 19.9785C2.48906 19.5566 2.29219 18.9191 2.24063 17.752C2.18438 16.4863 2.17031 16.1066 2.17031 12.9051C2.17031 9.69883 2.18438 9.31915 2.24063 8.05821C2.29219 6.88633 2.48906 6.25352 2.65313 5.83165C2.86875 5.27383 3.13125 4.87071 3.54844 4.45352C3.97031 4.03165 4.36875 3.77383 4.92656 3.55821C5.34844 3.39415 5.98594 3.19727 7.15313 3.14571C8.41406 3.08946 8.79375 3.0754 12 3.0754ZM12 0.914459C8.74219 0.914459 8.33438 0.928522 7.05469 0.984772C5.77969 1.04102 4.90313 1.24727 4.14375 1.54258C3.35156 1.85196 2.68125 2.25977 2.01563 2.93008C1.34531 3.59571 0.9375 4.26602 0.628125 5.05352C0.332812 5.81758 0.126563 6.68946 0.0703125 7.96446C0.0140625 9.24883 0 9.65665 0 12.9145C0 16.1723 0.0140625 16.5801 0.0703125 17.8598C0.126563 19.1348 0.332812 20.0113 0.628125 20.7707C0.9375 21.5629 1.34531 22.2332 2.01563 22.8988C2.68125 23.5645 3.35156 23.977 4.13906 24.2816C4.90313 24.577 5.775 24.7832 7.05 24.8395C8.32969 24.8957 8.7375 24.9098 11.9953 24.9098C15.2531 24.9098 15.6609 24.8957 16.9406 24.8395C18.2156 24.7832 19.0922 24.577 19.8516 24.2816C20.6391 23.977 21.3094 23.5645 21.975 22.8988C22.6406 22.2332 23.0531 21.5629 23.3578 20.7754C23.6531 20.0113 23.8594 19.1395 23.9156 17.8645C23.9719 16.5848 23.9859 16.177 23.9859 12.9191C23.9859 9.66133 23.9719 9.25352 23.9156 7.97383C23.8594 6.69883 23.6531 5.82227 23.3578 5.0629C23.0625 4.26602 22.6547 3.59571 21.9844 2.93008C21.3188 2.26446 20.6484 1.85196 19.8609 1.54727C19.0969 1.25196 18.225 1.04571 16.95 0.989459C15.6656 0.928522 15.2578 0.914459 12 0.914459Z" fill="white"/>
<path d="M12 6.7504C8.59688 6.7504 5.83594 9.51133 5.83594 12.9145C5.83594 16.3176 8.59688 19.0785 12 19.0785C15.4031 19.0785 18.1641 16.3176 18.1641 12.9145C18.1641 9.51133 15.4031 6.7504 12 6.7504ZM12 16.9129C9.79219 16.9129 8.00156 15.1223 8.00156 12.9145C8.00156 10.7066 9.79219 8.91602 12 8.91602C14.2078 8.91602 15.9984 10.7066 15.9984 12.9145C15.9984 15.1223 14.2078 16.9129 12 16.9129Z" fill="white"/>
<path d="M19.8469 6.50666C19.8469 7.30354 19.2 7.94573 18.4078 7.94573C17.6109 7.94573 16.9688 7.29885 16.9688 6.50666C16.9688 5.70979 17.6156 5.0676 18.4078 5.0676C19.2 5.0676 19.8469 5.71447 19.8469 6.50666Z" fill="white"/>
</svg>
