<svg width="23" height="22" viewBox="0 0 23 22" fill="none" xmlns="http://www.w3.org/2000/svg">
<path d="M10.2042 4.99994C10.2042 5.55222 10.6519 5.99994 11.2042 5.99994C11.7565 5.99994 12.2042 5.55222 12.2042 4.99994H10.2042ZM12.2042 0.999939C12.2042 0.447654 11.7565 -6.10352e-05 11.2042 -6.10352e-05C10.6519 -6.10352e-05 10.2042 0.447654 10.2042 0.999939H12.2042ZM10.2042 20.9999C10.2042 21.5522 10.6519 21.9999 11.2042 21.9999C11.7565 21.9999 12.2042 21.5522 12.2042 20.9999H10.2042ZM12.2042 16.9999C12.2042 16.4477 11.7565 15.9999 11.2042 15.9999C10.6519 15.9999 10.2042 16.4477 10.2042 16.9999H12.2042ZM17.2042 9.99994C16.6519 9.99994 16.2042 10.4477 16.2042 10.9999C16.2042 11.5522 16.6519 11.9999 17.2042 11.9999V9.99994ZM21.2042 11.9999C21.7565 11.9999 22.2042 11.5522 22.2042 10.9999C22.2042 10.4477 21.7565 9.99994 21.2042 9.99994V11.9999ZM1.20422 9.99994C0.651939 9.99994 0.204224 10.4477 0.204224 10.9999C0.204224 11.5522 0.651939 11.9999 1.20422 11.9999V9.99994ZM5.20422 11.9999C5.75651 11.9999 6.20422 11.5522 6.20422 10.9999C6.20422 10.4477 5.75651 9.99994 5.20422 9.99994V11.9999ZM18.2042 10.9999C18.2042 14.8659 15.0702 17.9999 11.2042 17.9999V19.9999C16.1748 19.9999 20.2042 15.9704 20.2042 10.9999H18.2042ZM11.2042 17.9999C7.33823 17.9999 4.20422 14.8659 4.20422 10.9999H2.20422C2.20422 15.9704 6.23366 19.9999 11.2042 19.9999V17.9999ZM4.20422 10.9999C4.20422 7.13389 7.33823 3.99988 11.2042 3.99988V1.99988C6.23366 1.99988 2.20422 6.02932 2.20422 10.9999H4.20422ZM11.2042 3.99988C15.0702 3.99988 18.2042 7.13389 18.2042 10.9999H20.2042C20.2042 6.02932 16.1748 1.99988 11.2042 1.99988V3.99988ZM12.2042 4.99994V0.999939H10.2042V4.99994H12.2042ZM12.2042 20.9999V16.9999H10.2042V20.9999H12.2042ZM17.2042 11.9999H21.2042V9.99994H17.2042V11.9999ZM1.20422 11.9999H5.20422V9.99994H1.20422V11.9999ZM13.2042 10.9999C13.2042 12.1045 12.3088 12.9999 11.2042 12.9999V14.9999C13.4134 14.9999 15.2042 13.2091 15.2042 10.9999H13.2042ZM11.2042 12.9999C10.0997 12.9999 9.20422 12.1045 9.20422 10.9999H7.20422C7.20422 13.2091 8.99509 14.9999 11.2042 14.9999V12.9999ZM9.20422 10.9999C9.20422 9.89537 10.0997 8.99994 11.2042 8.99994V6.99994C8.99509 6.99994 7.20422 8.7908 7.20422 10.9999H9.20422ZM11.2042 8.99994C12.3088 8.99994 13.2042 9.89537 13.2042 10.9999H15.2042C15.2042 8.7908 13.4134 6.99994 11.2042 6.99994V8.99994Z" fill="#94A3B8"/>
</svg>
