<?xml version="1.0" encoding="UTF-8"?>
<svg id="_レイヤー_2" data-name="レイヤー 2" xmlns="http://www.w3.org/2000/svg" viewBox="0 0 52.5 35.25">
  <defs>
    <style>
      .cls-1 {
        fill: #ed5565;
      }

      .cls-2 {
        fill: #f5f7fa;
      }
    </style>
  </defs>
  <g id="svg85412">
    <g id="layer166">
      <g id="canada">
        <rect id="rect11503" class="cls-1" width="52.5" height="35.25"/>
        <rect id="rect11505" class="cls-2" x="13.12" width="26.25" height="35.25"/>
        <path id="path11507" class="cls-1" d="M26.25,6.75l-1.85,3.45c-.21.37-.59.34-.96.13l-1.34-.69,1,5.29c.21.97-.46.97-.8.55l-2.34-2.61-.38,1.33c-.04.17-.24.36-.52.31l-2.95-.62.78,2.82c.17.63.3.89-.17,1.05l-1.05.49,5.08,4.13c.2.16.3.44.23.69l-.44,1.46c1.75-.2,3.32-.51,5.07-.69.15-.02.41.24.41.42l-.23,5.35h.85l-.13-5.34c0-.18.23-.45.39-.43,1.75.19,3.32.49,5.07.69l-.44-1.46c-.07-.25.03-.54.23-.69l5.08-4.13-1.05-.49c-.46-.17-.33-.43-.17-1.05l.78-2.82-2.95.62c-.29.04-.48-.14-.52-.31l-.38-1.33-2.34,2.61c-.33.42-1,.42-.8-.55l1-5.29-1.34.69c-.38.21-.75.24-.96-.13"/>
      </g>
    </g>
  </g>
</svg>