<?xml version="1.0" encoding="UTF-8"?>
<svg id="_レイヤー_2" data-name="レイヤー 2" xmlns="http://www.w3.org/2000/svg" xmlns:xlink="http://www.w3.org/1999/xlink" viewBox="0 0 87.87 109.74">
  <defs>
    <style>
      .cls-1 {
        fill: url(#linear-gradient);
      }

      .cls-2 {
        fill: url(#radial-gradient);
        opacity: .3;
      }

      .cls-3 {
        fill: #f0f0f0;
      }
    </style>
    <radialGradient id="radial-gradient" cx="2593.01" cy="101.29" fx="2593.01" fy="101.29" r="127.28" gradientTransform="translate(-840.54 94.24) scale(.34 .07)" gradientUnits="userSpaceOnUse">
      <stop offset="0" stop-color="#000100"/>
      <stop offset="1" stop-color="#000100" stop-opacity="0"/>
    </radialGradient>
    <linearGradient id="linear-gradient" x1="43.94" y1="66.03" x2="43.94" y2="6.95" gradientUnits="userSpaceOnUse">
      <stop offset="0" stop-color="#fff"/>
      <stop offset="1" stop-color="#c7c7c6"/>
    </linearGradient>
  </defs>
  <g id="_レイヤー_1-2" data-name="レイヤー 1">
    <g>
      <path class="cls-2" d="M87.87,101.29c0,4.67-19.67,8.46-43.94,8.46S0,105.96,0,101.29s19.67-8.45,43.94-8.45,43.94,3.79,43.94,8.45Z"/>
      <path class="cls-3" d="M80.59,36.65c0,20.24-27.42,64.63-36.65,64.63S7.28,56.9,7.28,36.65,23.69,0,43.94,0s36.65,16.41,36.65,36.65Z"/>
      <path class="cls-1" d="M74.44,36.65c0,16.84-13.65,30.5-30.5,30.5s-30.5-13.65-30.5-30.5S27.09,6.16,43.94,6.16s30.5,13.65,30.5,30.5Z"/>
      <g>
        <path class="cls-3" d="M35.21,23.22c.92.92,2.31,1.2,3.52.71,4.98-2.04,10.91-1.04,14.95,2.99,2.22,2.22,3.5,5.03,3.87,7.93l-1.48-1.08c-.51-.37-1.2-.36-1.69.02-.5.38-.69,1.04-.47,1.63l3.88,10.22c.17.45.56.78,1.02.88.47.1.96-.04,1.29-.38l7.8-7.73c.44-.44.55-1.12.25-1.67-.29-.55-.92-.85-1.53-.72l-2.43.49c-.04-5.14-2.01-10.27-5.93-14.18-5.94-5.93-14.66-7.41-21.99-4.44-1.02.41-1.76,1.3-1.98,2.38-.22,1.08.12,2.19.89,2.96h0Z"/>
        <path class="cls-3" d="M53.56,53.05c.22-1.07-.12-2.19-.89-2.96-.92-.92-2.31-1.2-3.51-.71-4.98,2.04-10.92,1.05-14.95-2.99-2.23-2.23-3.5-5.03-3.87-7.93l1.48,1.08c.51.37,1.19.36,1.69-.02.5-.38.69-1.04.46-1.63l-3.88-10.22c-.17-.45-.55-.78-1.02-.88-.47-.1-.96.04-1.29.38l-7.8,7.73c-.44.44-.54,1.12-.25,1.67.29.55.92.84,1.53.72l2.43-.49c.04,5.14,2.01,10.26,5.93,14.18,5.93,5.93,14.66,7.41,21.98,4.44,1.02-.41,1.76-1.3,1.98-2.38h0Z"/>
      </g>
    </g>
  </g>
</svg>