<?xml version="1.0" encoding="UTF-8"?>
<svg id="_レイヤー_2" data-name="レイヤー 2" xmlns="http://www.w3.org/2000/svg" xmlns:xlink="http://www.w3.org/1999/xlink" viewBox="0 0 87.87 109.74">
  <defs>
    <style>
      .cls-1 {
        fill: url(#linear-gradient);
      }

      .cls-2 {
        fill: url(#radial-gradient);
        opacity: .3;
      }

      .cls-3 {
        fill: #f0f0f0;
      }
    </style>
    <radialGradient id="radial-gradient" cx="1880.46" cy="101.29" fx="1880.46" fy="101.29" r="127.28" gradientTransform="translate(-597.49 94.24) scale(.34 .07)" gradientUnits="userSpaceOnUse">
      <stop offset="0" stop-color="#000100"/>
      <stop offset="1" stop-color="#000100" stop-opacity="0"/>
    </radialGradient>
    <linearGradient id="linear-gradient" x1="43.94" y1="66.03" x2="43.94" y2="6.95" gradientUnits="userSpaceOnUse">
      <stop offset="0" stop-color="#fff"/>
      <stop offset="1" stop-color="#c7c7c6"/>
    </linearGradient>
  </defs>
  <g id="_レイヤー_1-2" data-name="レイヤー 1">
    <g>
      <path class="cls-2" d="M87.87,101.29c0,4.67-19.67,8.45-43.94,8.45S0,105.96,0,101.29s19.67-8.45,43.94-8.45,43.94,3.79,43.94,8.45Z"/>
      <path class="cls-3" d="M80.59,36.65c0,20.24-27.42,64.63-36.65,64.63S7.28,56.9,7.28,36.65,23.69,0,43.94,0s36.65,16.41,36.65,36.65Z"/>
      <path class="cls-1" d="M74.43,36.65c0,16.84-13.65,30.5-30.5,30.5s-30.5-13.65-30.5-30.5S27.09,6.16,43.94,6.16s30.5,13.65,30.5,30.5Z"/>
      <g>
        <path class="cls-3" d="M27.46,31.28c.21.73.51,1.42.88,2.08l-1.06,1.34c-.35.44-.31,1.06.08,1.45l1.82,1.82c.39.39,1.02.43,1.45.08l1.33-1.05c.68.39,1.41.7,2.16.91l.2,1.71c.07.55.53.97,1.08.97h2.58c.55,0,1.02-.42,1.08-.97l.19-1.64c.81-.21,1.59-.53,2.32-.94l1.28,1.01c.44.35,1.06.31,1.45-.08l1.82-1.82c.39-.39.43-1.01.08-1.45l-1-1.27c.42-.72.74-1.48.95-2.28l1.54-.18c.55-.07.97-.53.97-1.08v-2.58c0-.55-.41-1.02-.97-1.08l-1.52-.18c-.21-.79-.52-1.55-.92-2.25l.93-1.18c.34-.44.31-1.06-.08-1.45l-1.82-1.82c-.39-.39-1.01-.43-1.45-.08l-1.14.91c-.74-.44-1.54-.77-2.37-.99l-.17-1.48c-.06-.55-.53-.97-1.08-.97h-2.58c-.55,0-1.02.41-1.08.97l-.17,1.48c-.85.23-1.67.57-2.43,1.03l-1.19-.94c-.44-.35-1.06-.31-1.45.08l-1.82,1.82c-.39.39-.43,1.01-.08,1.45l.99,1.25c-.4.72-.7,1.48-.9,2.28l-1.59.18c-.55.07-.97.53-.97,1.08v2.58c0,.55.41,1.02.97,1.08l1.67.19ZM36.79,24.3c2.35,0,4.26,1.91,4.26,4.26s-1.91,4.26-4.26,4.26-4.26-1.91-4.26-4.26,1.91-4.26,4.26-4.26h0Z"/>
        <path class="cls-3" d="M62.27,31.91l-1.36-1.15c-.42-.35-1.04-.34-1.43.04l-.75.7c-.64-.31-1.31-.52-2-.65l-.21-1.04c-.11-.54-.6-.91-1.15-.86l-1.78.15c-.54.05-.97.49-.99,1.04l-.04,1.05c-.68.25-1.32.58-1.91,1.01l-.9-.6c-.46-.3-1.07-.22-1.42.2l-1.15,1.37c-.36.42-.34,1.04.04,1.43l.79.84c-.27.61-.47,1.26-.58,1.92l-1.12.23c-.54.11-.91.61-.86,1.15l.15,1.77c.05.54.49.97,1.04.99l1.21.04c.22.58.51,1.13.86,1.64l-.68,1.02c-.3.46-.22,1.07.2,1.42l1.36,1.15c.42.35,1.04.34,1.43-.04l.89-.83c.58.27,1.19.48,1.83.6l.25,1.22c.11.53.6.91,1.15.86l1.77-.15c.54-.05.97-.49.99-1.04l.04-1.19c.65-.23,1.26-.54,1.83-.92l.98.65c.46.3,1.07.22,1.42-.2l1.15-1.36c.35-.42.34-1.04-.04-1.43l-.79-.84c.29-.61.5-1.26.62-1.93l1.08-.22c.54-.11.91-.6.86-1.15l-.15-1.77c-.05-.54-.49-.97-1.04-.99l-1.08-.03c-.22-.63-.53-1.23-.9-1.78l.59-.89c.31-.46.23-1.07-.19-1.42h0ZM55.59,42.17c-1.92.16-3.61-1.27-3.77-3.18-.17-1.92,1.26-3.61,3.18-3.77,1.92-.16,3.61,1.26,3.77,3.18.16,1.92-1.26,3.61-3.18,3.77h0Z"/>
        <path class="cls-3" d="M33.67,46.94c-.55.06-.96.51-.97,1.06v1.09c-.02.55.38,1.02.93,1.08l.8.1c.13.49.32.95.57,1.39l-.52.64c-.34.43-.32,1.04.07,1.43l.76.78c.38.39,1,.44,1.43.1l.64-.5c.45.27.93.48,1.43.62l.09.83c.06.54.51.96,1.06.97h1.09c.55.02,1.02-.38,1.08-.93l.1-.79c.54-.13,1.06-.34,1.55-.6l.61.49c.43.34,1.04.32,1.43-.07l.78-.76c.39-.38.43-1,.1-1.43l-.46-.6c.28-.48.5-.98.66-1.51l.71-.07c.54-.06.96-.51.97-1.06v-1.09c.02-.55-.38-1.01-.93-1.08l-.7-.09c-.13-.53-.33-1.04-.59-1.51l.43-.54c.34-.43.32-1.04-.06-1.43l-.76-.78c-.38-.39-1-.44-1.43-.1l-.52.4c-.49-.3-1.02-.53-1.57-.68l-.07-.68c-.06-.54-.51-.96-1.06-.97h-1.09c-.55-.02-1.01.38-1.08.93l-.09.67c-.57.15-1.12.37-1.63.66l-.54-.44c-.43-.35-1.04-.32-1.43.07l-.79.77c-.39.38-.44,1-.1,1.43l.46.6c-.27.48-.48.98-.62,1.51l-.76.08ZM40.71,45.71c1.57.02,2.83,1.31,2.81,2.88-.02,1.57-1.31,2.82-2.87,2.81-1.57-.02-2.82-1.31-2.81-2.88.02-1.57,1.31-2.82,2.87-2.81h0Z"/>
      </g>
    </g>
  </g>
</svg>