<?xml version="1.0" encoding="UTF-8"?>
<svg id="_レイヤー_2" data-name="レイヤー 2" xmlns="http://www.w3.org/2000/svg" xmlns:xlink="http://www.w3.org/1999/xlink" viewBox="0 0 87.87 109.74">
  <defs>
    <style>
      .cls-1 {
        fill: url(#linear-gradient);
      }

      .cls-2 {
        fill: url(#radial-gradient);
        opacity: .3;
      }

      .cls-3 {
        fill: #f0f0f0;
      }
    </style>
    <radialGradient id="radial-gradient" cx="2238.02" cy="101.29" fx="2238.02" fy="101.29" r="127.28" gradientTransform="translate(-719.45 94.24) scale(.34 .07)" gradientUnits="userSpaceOnUse">
      <stop offset="0" stop-color="#000100"/>
      <stop offset="1" stop-color="#000100" stop-opacity="0"/>
    </radialGradient>
    <linearGradient id="linear-gradient" x1="43.94" y1="66.03" x2="43.94" y2="6.95" gradientUnits="userSpaceOnUse">
      <stop offset="0" stop-color="#fff"/>
      <stop offset="1" stop-color="#c7c7c6"/>
    </linearGradient>
  </defs>
  <g id="_レイヤー_1-2" data-name="レイヤー 1">
    <g>
      <g>
        <path class="cls-2" d="M87.87,101.29c0,4.67-19.67,8.45-43.93,8.45S0,105.96,0,101.29s19.67-8.45,43.94-8.45,43.93,3.79,43.93,8.45Z"/>
        <path class="cls-3" d="M80.59,36.65c0,20.24-27.42,64.63-36.65,64.63S7.28,56.9,7.28,36.65,23.69,0,43.94,0s36.65,16.41,36.65,36.65Z"/>
        <path class="cls-1" d="M74.43,36.65c0,16.84-13.65,30.5-30.5,30.5s-30.5-13.65-30.5-30.5S27.09,6.16,43.94,6.16s30.5,13.65,30.5,30.5Z"/>
      </g>
      <path class="cls-3" d="M57.32,26.41c-.15-.54-.44-1.12-.66-1.63-2.61-6.27-8.31-8.52-12.92-8.52-6.16,0-12.96,4.13-13.86,12.66v1.74c0,.07.02.73.06,1.05.51,4.06,3.71,8.38,6.11,12.44,2.57,4.35,5.24,8.63,7.89,12.91,1.63-2.79,3.26-5.62,4.85-8.34.44-.8.94-1.59,1.37-2.36.29-.51.85-1.02,1.1-1.49,2.57-4.71,6.72-9.47,6.72-14.14v-1.92c0-.51-.63-2.28-.66-2.39h0ZM43.86,35.15c-1.81,0-3.79-.9-4.78-3.41-.15-.4-.13-1.2-.13-1.27v-1.12c0-3.19,2.71-4.64,5.07-4.64,2.9,0,5.14,2.32,5.14,5.22s-2.4,5.22-5.3,5.22h0Z"/>
    </g>
  </g>
</svg>