<?xml version="1.0" encoding="UTF-8"?>
<svg id="_レイヤー_2" data-name="レイヤー 2" xmlns="http://www.w3.org/2000/svg" xmlns:xlink="http://www.w3.org/1999/xlink" viewBox="0 0 87.87 109.74">
  <defs>
    <style>
      .cls-1 {
        fill: url(#linear-gradient);
      }

      .cls-2 {
        fill: url(#radial-gradient);
        opacity: .3;
      }

      .cls-3 {
        fill: #f0f0f0;
      }
    </style>
    <radialGradient id="radial-gradient" cx="1887.01" cy="101.29" fx="1887.01" fy="101.29" r="127.28" gradientTransform="translate(-599.72 94.24) scale(.34 .07)" gradientUnits="userSpaceOnUse">
      <stop offset="0" stop-color="#000100"/>
      <stop offset="1" stop-color="#000100" stop-opacity="0"/>
    </radialGradient>
    <linearGradient id="linear-gradient" x1="43.94" y1="66.03" x2="43.94" y2="6.95" gradientTransform="translate(69.35 -14.61) rotate(76.53)" gradientUnits="userSpaceOnUse">
      <stop offset="0" stop-color="#fff"/>
      <stop offset="1" stop-color="#c7c7c6"/>
    </linearGradient>
  </defs>
  <g id="_レイヤー_1-2" data-name="レイヤー 1">
    <g>
      <ellipse class="cls-2" cx="43.94" cy="101.29" rx="43.94" ry="8.45"/>
      <path class="cls-3" d="M80.59,36.65c0,20.24-27.42,64.63-36.65,64.63S7.28,56.9,7.28,36.65,23.69,0,43.94,0s36.65,16.41,36.65,36.65Z"/>
      <circle class="cls-1" cx="43.94" cy="36.65" r="30.5" transform="translate(-1.94 70.85) rotate(-76.53)"/>
      <g>
        <path class="cls-3" d="M44.43,34.97c.12.12.28.18.44.18h18.81c.18,0,.35-.08.47-.21.12-.13.18-.31.16-.48-.54-5.04-2.89-9.66-6.63-13.02-3.74-3.36-8.6-5.21-13.68-5.21-4.65,0-9.19,1.6-12.81,4.51-.14.11-.22.28-.23.45,0,.18.06.35.18.48l13.3,13.3ZM41.9,27.82l5.39-8.02c.62.12,1.23.28,1.84.47l-5.9,8.88-1.33-1.33ZM43.99,19.48c.16,0,.32,0,.49,0l-4.39,6.53-1.42-1.42,3.51-5.02c.6-.06,1.21-.09,1.81-.09h0ZM38.58,20.35l-1.71,2.44-1.18-1.18c.76-.42,1.56-.79,2.38-1.09.17-.06.34-.12.51-.18h0ZM54.57,31.89l3.43-5.17c.24.33.46.68.68,1.03l-2.84,4.14h-1.27ZM58.88,31.89l1.08-1.57c.21.51.38,1.04.54,1.57h-1.61ZM49.52,31.89l5.55-8.35c.18.15.35.3.52.45.25.23.5.47.74.72l-4.77,7.18h-2.04ZM46.51,31.89h-.55l-.93-.93,6.48-9.75c.53.26,1.04.54,1.54.85l-6.53,9.83Z"/>
        <path class="cls-3" d="M41.74,36.53l-12.73-12.73c-.12-.13-.3-.19-.48-.18-.18,0-.34.09-.45.23-2.91,3.62-4.51,8.16-4.51,12.81,0,6.36,2.88,12.25,7.92,16.15.11.09.25.13.38.13.04,0,.07,0,.11-.01.17-.03.33-.14.42-.29l9.43-15.34c.15-.25.12-.57-.09-.77h0ZM37.97,37.36l-6.67,10.85c-1.04-1.14-1.92-2.41-2.61-3.77-1.24-2.42-1.86-5.04-1.86-7.78,0-2.04.35-4.03,1.05-5.92.3-.82.67-1.62,1.09-2.38l9.01,9.01Z"/>
        <path class="cls-3" d="M63.68,38.16h-18.5c-.22,0-.42.11-.53.3l-9.69,15.76c-.09.15-.12.34-.07.51.05.17.17.31.33.39,2.75,1.31,5.7,1.97,8.77,1.97,5.08,0,9.94-1.85,13.68-5.21,3.74-3.36,6.09-7.98,6.63-13.02.02-.18-.04-.35-.16-.49-.12-.13-.29-.21-.47-.21h0Z"/>
      </g>
    </g>
  </g>
</svg>