<svg width="146" height="34" viewBox="0 0 146 34" fill="none" xmlns="http://www.w3.org/2000/svg">
<path d="M5.16 28.359C4.664 28.359 4.224 28.231 3.84 27.975C3.472 27.719 3.296 27.335 3.312 26.823C3.344 25.927 3.408 24.935 3.504 23.847C3.616 22.759 3.744 21.655 3.888 20.535C4.032 19.399 4.176 18.311 4.32 17.271C4.48 16.231 4.624 15.303 4.752 14.487C4.464 14.455 4.184 14.431 3.912 14.415C3.64 14.399 3.392 14.391 3.168 14.391C2.496 14.391 1.888 14.455 1.344 14.583C0.816 14.711 0.368 14.935 0 15.255C0 14.247 0.08 13.431 0.24 12.807C0.416 12.167 0.728 11.703 1.176 11.415C1.64 11.127 2.312 10.983 3.192 10.983C3.832 10.983 4.544 11.039 5.328 11.151C6.128 11.247 6.936 11.351 7.752 11.463C8.568 11.575 9.328 11.631 10.032 11.631C10.608 11.631 11.12 11.575 11.568 11.463C12.032 11.351 12.384 11.151 12.624 10.863C12.976 10.975 13.248 11.223 13.44 11.607C13.632 11.975 13.728 12.383 13.728 12.831C13.728 13.231 13.64 13.623 13.464 14.007C13.288 14.375 13.008 14.687 12.624 14.943C12.24 15.183 11.72 15.303 11.064 15.303C10.76 15.303 10.384 15.279 9.936 15.231C9.504 15.167 9.04 15.103 8.544 15.039C8.368 15.999 8.184 17.151 7.992 18.495C7.816 19.823 7.664 21.255 7.536 22.791C7.424 24.327 7.352 25.887 7.32 27.471C7.032 27.775 6.688 27.999 6.288 28.143C5.904 28.287 5.528 28.359 5.16 28.359Z" fill="#38bdf8"/>
<path d="M14.0535 28.359C13.4775 28.359 12.9655 28.127 12.5175 27.663C12.0695 27.183 11.8455 26.511 11.8455 25.647C11.8455 25.231 11.8935 24.759 11.9895 24.231C12.0855 23.703 12.1975 23.167 12.3255 22.623C12.4535 22.063 12.5655 21.543 12.6615 21.063C12.7575 20.567 12.8055 20.159 12.8055 19.839C12.8055 19.503 12.7415 19.239 12.6135 19.047C12.5015 18.839 12.3495 18.735 12.1575 18.735C11.8535 18.735 11.5415 18.943 11.2215 19.359L11.0775 19.263C11.0615 19.007 11.1175 18.703 11.2455 18.351C11.3735 17.999 11.5735 17.663 11.8455 17.343C12.1175 17.007 12.4615 16.727 12.8775 16.503C13.3095 16.279 13.8135 16.167 14.3895 16.167C15.2375 16.167 15.8535 16.415 16.2375 16.911C16.6215 17.391 16.8135 17.975 16.8135 18.663C16.8135 18.775 16.8055 18.895 16.7895 19.023C16.7895 19.135 16.7815 19.247 16.7655 19.359C17.3415 18.319 17.9415 17.527 18.5655 16.983C19.2055 16.423 19.7975 16.143 20.3415 16.143C20.8535 16.143 21.2295 16.343 21.4695 16.743C21.7095 17.143 21.8295 17.623 21.8295 18.183C21.8295 18.695 21.7255 19.215 21.5175 19.743C21.3255 20.271 21.0295 20.711 20.6295 21.063C20.2455 21.399 19.7735 21.559 19.2135 21.543L19.1175 21.495C19.1015 21.079 18.9655 20.751 18.7095 20.511C18.4535 20.271 18.1655 20.151 17.8455 20.151C17.4135 20.151 17.0055 20.367 16.6215 20.799C16.2535 21.231 16.0695 21.855 16.0695 22.671C16.0695 23.167 16.1255 23.703 16.2375 24.279C16.3495 24.855 16.4055 25.343 16.4055 25.743C16.4055 26.223 16.2935 26.663 16.0695 27.063C15.8455 27.463 15.5575 27.783 15.2055 28.023C14.8535 28.247 14.4695 28.359 14.0535 28.359Z" fill="#0ea5e9"/>
<path d="M30.9737 28.383C30.4137 28.383 29.9257 28.199 29.5097 27.831C29.0937 27.463 28.8857 26.863 28.8857 26.031C28.8857 25.951 28.8857 25.871 28.8857 25.791C28.8857 25.711 28.8937 25.631 28.9097 25.551C28.4297 26.511 27.8857 27.223 27.2777 27.687C26.6857 28.135 26.0857 28.359 25.4777 28.359C24.9177 28.359 24.3897 28.167 23.8937 27.783C23.3977 27.383 22.9977 26.799 22.6937 26.031C22.3897 25.263 22.2377 24.335 22.2377 23.247C22.2377 22.127 22.3897 21.127 22.6937 20.247C23.0137 19.367 23.4297 18.623 23.9417 18.015C24.4537 17.407 25.0137 16.951 25.6217 16.647C26.2297 16.327 26.8217 16.167 27.3977 16.167C28.0377 16.167 28.6137 16.367 29.1257 16.767C29.6377 17.151 29.9897 17.767 30.1817 18.615C30.2297 18.343 30.2617 18.095 30.2777 17.871C30.3097 17.647 30.3257 17.495 30.3257 17.415C30.3417 16.983 30.5577 16.663 30.9737 16.455C31.4057 16.247 31.8777 16.143 32.3897 16.143C32.8377 16.143 33.2617 16.231 33.6617 16.407C34.0617 16.583 34.3337 16.879 34.4777 17.295L34.5257 17.439C34.3337 17.871 34.1417 18.391 33.9497 18.999C33.7577 19.607 33.5817 20.247 33.4217 20.919C33.2617 21.575 33.1337 22.223 33.0377 22.863C32.9417 23.487 32.8937 24.039 32.8937 24.519C32.8937 25.047 32.9497 25.415 33.0617 25.623C33.1737 25.815 33.3097 25.911 33.4697 25.911C33.7417 25.911 33.9897 25.719 34.2137 25.335L34.4057 25.431C34.4057 25.975 34.2297 26.471 33.8777 26.919C33.5257 27.367 33.0857 27.727 32.5577 27.999C32.0297 28.255 31.5017 28.383 30.9737 28.383ZM27.0617 25.335C27.4777 25.335 27.9337 24.967 28.4297 24.231C28.9417 23.479 29.3817 22.407 29.7497 21.015C29.7817 20.871 29.8137 20.735 29.8457 20.607C29.8777 20.463 29.9017 20.327 29.9177 20.199C29.6617 19.607 29.3897 19.191 29.1017 18.951C28.8297 18.695 28.5577 18.567 28.2857 18.567C27.8857 18.567 27.5097 18.783 27.1577 19.215C26.8217 19.631 26.5417 20.159 26.3177 20.799C26.1097 21.439 26.0057 22.079 26.0057 22.719C26.0057 23.599 26.1017 24.255 26.2937 24.687C26.5017 25.119 26.7577 25.335 27.0617 25.335Z" fill="#0ea5e9"/>
<path d="M39.3606 28.359C38.4326 28.359 37.6966 28.119 37.1526 27.639C36.6086 27.143 36.3366 26.383 36.3366 25.359C36.3366 24.767 36.4086 24.135 36.5526 23.463C36.7126 22.791 36.8646 22.191 37.0086 21.663C37.1526 21.151 37.2646 20.703 37.3446 20.319C37.4406 19.935 37.4886 19.639 37.4886 19.431C37.4886 19.175 37.4326 18.991 37.3206 18.879C37.2086 18.767 37.0726 18.711 36.9126 18.711C36.5286 18.711 36.2086 18.895 35.9526 19.263L35.8566 19.167C35.8726 18.623 36.0486 18.127 36.3846 17.679C36.7206 17.215 37.1526 16.847 37.6806 16.575C38.2086 16.303 38.7446 16.167 39.2886 16.167C39.8966 16.167 40.4166 16.351 40.8486 16.719C41.2806 17.071 41.4806 17.631 41.4486 18.399C41.4326 18.735 41.3686 19.159 41.2566 19.671C41.1606 20.183 41.0246 20.791 40.8486 21.495C40.7366 21.943 40.6166 22.455 40.4886 23.031C40.3766 23.591 40.3206 24.103 40.3206 24.567C40.3206 24.919 40.3766 25.199 40.4886 25.407C40.6006 25.615 40.7846 25.719 41.0406 25.719C41.3766 25.719 41.7446 25.535 42.1446 25.167C42.5606 24.783 42.9206 24.167 43.2246 23.319C43.5286 22.455 43.7046 21.311 43.7526 19.887C43.8006 18.799 43.7286 18.007 43.5366 17.511V17.391C43.6806 17.167 43.8966 16.951 44.1846 16.743C44.4886 16.535 44.8246 16.367 45.1926 16.239C45.5606 16.095 45.9046 16.023 46.2246 16.023C46.7366 16.023 47.1686 16.271 47.5206 16.767C47.8886 17.263 48.0486 18.127 48.0006 19.359C47.9686 20.543 47.7526 21.615 47.3526 22.575C46.9686 23.535 46.4646 24.375 45.8406 25.095C45.2166 25.815 44.5286 26.415 43.7766 26.895C43.0406 27.375 42.2886 27.743 41.5206 27.999C40.7526 28.239 40.0326 28.359 39.3606 28.359Z" fill="#0ea5e9"/>
<path d="M54.2102 28.431C53.0422 28.431 52.0742 28.199 51.3062 27.735C50.5382 27.255 49.9622 26.631 49.5782 25.863C49.1942 25.079 49.0022 24.239 49.0022 23.343C49.0022 22.495 49.1622 21.647 49.4822 20.799C49.8182 19.935 50.2982 19.151 50.9222 18.447C51.5622 17.743 52.3302 17.175 53.2262 16.743C54.1382 16.311 55.1622 16.095 56.2982 16.095C57.7062 16.095 58.7302 16.415 59.3702 17.055C60.0262 17.679 60.3542 18.439 60.3542 19.335C60.3542 20.103 60.1462 20.815 59.7302 21.471C59.3302 22.111 58.7942 22.631 58.1222 23.031C57.4502 23.415 56.7142 23.607 55.9142 23.607C55.4982 23.607 55.0742 23.543 54.6422 23.415C54.2102 23.287 53.7862 23.087 53.3702 22.815C53.4502 23.807 53.7382 24.527 54.2342 24.975C54.7302 25.423 55.3222 25.647 56.0102 25.647C56.4902 25.647 56.9702 25.559 57.4502 25.383C57.9302 25.191 58.3702 24.951 58.7702 24.663C59.1862 24.359 59.5062 24.039 59.7302 23.703L59.8982 23.823C59.8982 24.655 59.7222 25.367 59.3702 25.959C59.0342 26.535 58.5862 27.007 58.0262 27.375C57.4662 27.743 56.8502 28.015 56.1782 28.191C55.5222 28.351 54.8662 28.431 54.2102 28.431ZM54.7622 21.951C55.2742 21.951 55.6902 21.807 56.0102 21.519C56.3302 21.215 56.5702 20.863 56.7302 20.463C56.8902 20.063 56.9702 19.711 56.9702 19.407C56.9702 19.039 56.8662 18.735 56.6582 18.495C56.4502 18.239 56.1622 18.111 55.7942 18.111C55.5062 18.111 55.1862 18.215 54.8342 18.423C54.4982 18.631 54.1942 18.991 53.9222 19.503C53.6502 19.999 53.4742 20.695 53.3942 21.591C53.9062 21.831 54.3622 21.951 54.7622 21.951Z" fill="#0ea5e9"/>
<path d="M72.3178 28.431C71.7418 28.431 71.0858 28.327 70.3498 28.119C69.6298 27.911 68.8698 27.687 68.0698 27.447C67.2858 27.191 66.5018 27.007 65.7178 26.895C65.1738 27.407 64.6618 27.775 64.1818 27.999C63.7178 28.207 63.3018 28.311 62.9338 28.311C62.4698 28.311 62.0778 28.175 61.7578 27.903C61.4378 27.631 61.1978 27.287 61.0378 26.871C60.8778 26.439 60.7978 25.999 60.7978 25.551C60.7978 25.087 60.8778 24.647 61.0378 24.231C61.2138 23.815 61.4778 23.479 61.8298 23.223C62.1818 22.951 62.6298 22.815 63.1738 22.815C63.2858 22.815 63.4058 22.823 63.5338 22.839C63.6618 22.855 63.7978 22.879 63.9418 22.911C64.2458 21.983 64.5098 20.959 64.7338 19.839C64.9738 18.703 65.1578 17.591 65.2858 16.503C65.4298 15.415 65.5018 14.471 65.5018 13.671C65.5018 13.351 65.4858 13.127 65.4538 12.999C65.4218 12.855 65.3658 12.711 65.2858 12.567L65.2618 12.495C65.4538 11.983 65.7738 11.583 66.2218 11.295C66.6698 11.007 67.1418 10.863 67.6378 10.863C68.1818 10.863 68.6298 11.063 68.9818 11.463C69.3338 11.847 69.5098 12.495 69.5098 13.407C69.5098 13.983 69.4378 14.703 69.2938 15.567C69.1658 16.415 68.9818 17.335 68.7418 18.327C68.5018 19.303 68.2378 20.271 67.9498 21.231C67.6618 22.191 67.3738 23.047 67.0858 23.799C67.7898 23.959 68.4938 24.143 69.1978 24.351C69.9178 24.559 70.6218 24.663 71.3098 24.663C71.8378 24.663 72.3418 24.567 72.8218 24.375C73.3178 24.183 73.7818 23.831 74.2138 23.319C74.5338 23.527 74.7658 23.823 74.9098 24.207C75.0698 24.591 75.1498 24.999 75.1498 25.431C75.1498 25.911 75.0458 26.383 74.8378 26.847C74.6458 27.295 74.3418 27.671 73.9258 27.975C73.5098 28.279 72.9738 28.431 72.3178 28.431Z" fill="#0ea5e9"/>
<path d="M81.3743 28.431C80.2063 28.431 79.2383 28.199 78.4703 27.735C77.7023 27.255 77.1263 26.631 76.7422 25.863C76.3582 25.079 76.1663 24.239 76.1663 23.343C76.1663 22.495 76.3262 21.647 76.6462 20.799C76.9822 19.935 77.4622 19.151 78.0863 18.447C78.7262 17.743 79.4942 17.175 80.3903 16.743C81.3023 16.311 82.3262 16.095 83.4622 16.095C84.8702 16.095 85.8942 16.415 86.5342 17.055C87.1902 17.679 87.5182 18.439 87.5182 19.335C87.5182 20.103 87.3102 20.815 86.8942 21.471C86.4942 22.111 85.9582 22.631 85.2862 23.031C84.6143 23.415 83.8783 23.607 83.0782 23.607C82.6622 23.607 82.2383 23.543 81.8063 23.415C81.3743 23.287 80.9502 23.087 80.5342 22.815C80.6143 23.807 80.9022 24.527 81.3982 24.975C81.8942 25.423 82.4862 25.647 83.1742 25.647C83.6543 25.647 84.1342 25.559 84.6143 25.383C85.0943 25.191 85.5342 24.951 85.9342 24.663C86.3503 24.359 86.6702 24.039 86.8942 23.703L87.0622 23.823C87.0622 24.655 86.8862 25.367 86.5342 25.959C86.1982 26.535 85.7502 27.007 85.1902 27.375C84.6302 27.743 84.0142 28.015 83.3422 28.191C82.6862 28.351 82.0303 28.431 81.3743 28.431ZM81.9262 21.951C82.4382 21.951 82.8542 21.807 83.1742 21.519C83.4942 21.215 83.7342 20.863 83.8942 20.463C84.0542 20.063 84.1342 19.711 84.1342 19.407C84.1342 19.039 84.0303 18.735 83.8223 18.495C83.6143 18.239 83.3262 18.111 82.9583 18.111C82.6702 18.111 82.3503 18.215 81.9983 18.423C81.6623 18.631 81.3583 18.991 81.0863 19.503C80.8142 19.999 80.6383 20.695 80.5583 21.591C81.0703 21.831 81.5262 21.951 81.9262 21.951Z" fill="#0ea5e9"/>
<path d="M97.5127 28.383C96.9528 28.383 96.4648 28.199 96.0488 27.831C95.6328 27.463 95.4248 26.863 95.4248 26.031C95.4248 25.951 95.4248 25.871 95.4248 25.791C95.4248 25.711 95.4328 25.631 95.4488 25.551C94.9688 26.511 94.4248 27.223 93.8167 27.687C93.2247 28.135 92.6247 28.359 92.0167 28.359C91.4567 28.359 90.9287 28.167 90.4327 27.783C89.9367 27.383 89.5368 26.799 89.2327 26.031C88.9287 25.263 88.7767 24.335 88.7767 23.247C88.7767 22.127 88.9287 21.127 89.2327 20.247C89.5527 19.367 89.9688 18.623 90.4808 18.015C90.9928 17.407 91.5527 16.951 92.1608 16.647C92.7688 16.327 93.3608 16.167 93.9368 16.167C94.5768 16.167 95.1527 16.367 95.6647 16.767C96.1768 17.151 96.5287 17.767 96.7207 18.615C96.7687 18.343 96.8008 18.095 96.8167 17.871C96.8487 17.647 96.8648 17.495 96.8648 17.415C96.8808 16.983 97.0967 16.663 97.5127 16.455C97.9447 16.247 98.4167 16.143 98.9287 16.143C99.3767 16.143 99.8008 16.231 100.201 16.407C100.601 16.583 100.873 16.879 101.017 17.295L101.065 17.439C100.873 17.871 100.681 18.391 100.489 18.999C100.297 19.607 100.121 20.247 99.9607 20.919C99.8008 21.575 99.6728 22.223 99.5768 22.863C99.4808 23.487 99.4328 24.039 99.4328 24.519C99.4328 25.047 99.4888 25.415 99.6008 25.623C99.7128 25.815 99.8488 25.911 100.009 25.911C100.281 25.911 100.529 25.719 100.753 25.335L100.945 25.431C100.945 25.975 100.769 26.471 100.417 26.919C100.065 27.367 99.6247 27.727 99.0967 27.999C98.5687 28.255 98.0407 28.383 97.5127 28.383ZM93.6008 25.335C94.0168 25.335 94.4727 24.967 94.9688 24.231C95.4808 23.479 95.9207 22.407 96.2887 21.015C96.3207 20.871 96.3528 20.735 96.3848 20.607C96.4167 20.463 96.4408 20.327 96.4567 20.199C96.2008 19.607 95.9287 19.191 95.6407 18.951C95.3687 18.695 95.0968 18.567 94.8248 18.567C94.4248 18.567 94.0487 18.783 93.6967 19.215C93.3607 19.631 93.0807 20.159 92.8568 20.799C92.6488 21.439 92.5447 22.079 92.5447 22.719C92.5447 23.599 92.6407 24.255 92.8327 24.687C93.0407 25.119 93.2968 25.335 93.6008 25.335Z" fill="#0ea5e9"/>
<path d="M104.516 33.135C104.052 33.135 103.612 33.047 103.196 32.871C102.78 32.711 102.492 32.463 102.331 32.127C102.715 30.495 103.028 29.047 103.268 27.783C103.523 26.519 103.724 25.391 103.868 24.399C104.011 23.407 104.115 22.503 104.179 21.687C104.243 20.855 104.284 20.055 104.299 19.287C103.756 19.319 103.236 19.375 102.74 19.455C102.243 19.519 101.811 19.615 101.443 19.743L101.396 19.575C101.859 19.111 102.34 18.727 102.836 18.423C103.332 18.103 103.827 17.847 104.324 17.655V15.831C104.324 14.599 104.571 13.599 105.067 12.831C105.563 12.047 106.196 11.471 106.964 11.103C107.747 10.719 108.555 10.527 109.387 10.527C110.491 10.527 111.315 10.791 111.859 11.319C112.419 11.847 112.7 12.439 112.7 13.095C112.7 13.575 112.548 14.039 112.243 14.487C111.955 14.935 111.516 15.311 110.924 15.615C110.331 15.903 109.587 16.047 108.691 16.047C108.947 15.583 109.14 15.119 109.268 14.655C109.411 14.191 109.483 13.783 109.483 13.431C109.483 13.159 109.444 12.943 109.364 12.783C109.284 12.607 109.172 12.519 109.028 12.519C108.724 12.519 108.428 12.903 108.14 13.671C107.868 14.423 107.731 15.415 107.731 16.647V17.103C108.195 17.087 108.635 17.095 109.051 17.127C109.483 17.159 109.883 17.191 110.252 17.223C110.284 17.335 110.308 17.455 110.324 17.583C110.34 17.711 110.348 17.839 110.348 17.967C110.348 18.207 110.316 18.447 110.252 18.687C110.188 18.927 110.1 19.175 109.988 19.431C109.7 19.399 109.372 19.367 109.004 19.335C108.635 19.303 108.243 19.279 107.827 19.263V19.791C107.827 20.671 107.787 21.687 107.707 22.839C107.643 23.991 107.516 25.359 107.324 26.943C107.132 28.527 106.836 30.415 106.436 32.607C105.939 32.959 105.299 33.135 104.516 33.135Z" fill="#0ea5e9"/>
<path d="M121.088 20.8947C121.127 20.5514 121.172 20.0917 121.229 19.7513C121.493 18.5001 121.498 18.4745 121.729 17.8021C122.176 16.6559 122.195 16.6105 122.533 15.9834L122.701 15.6798C123.033 15.2741 123.601 15.0415 125.737 14.4286C133.89 12.0936 133.84 10.5331 133.132 10.1302H133.244C135.9 10.3544 137.246 11.8666 134.899 14.0116C132.44 16.2586 127.507 18.0149 124.244 19.1753C122.198 19.9045 121.17 20.2705 121.088 20.8918M123.202 28.7623C122.991 28.3765 123.5 28.1325 126.195 27.0628C140.271 21.4706 144.911 16.3806 139.987 11.9375C138.331 11.0183 137.227 10.7374 135.731 10.4168C136.676 10.7714 144.405 14.1023 125.248 21.499C122.17 22.6878 121.243 23.0453 121.2 23.7575L121.349 24.532C121.51 25.2271 121.526 25.2725 121.948 26.4415C122.221 27.1026 122.243 27.1451 122.842 28.2091L123.202 28.7623ZM142.637 14.3605C142.359 13.9945 141.937 13.5434 141.625 13.2058C143.944 15.5834 147.244 21.8991 127.848 29.1681C125.099 30.198 124.972 30.2803 124.812 30.6179C124.832 30.6463 124.854 30.6831 124.874 30.7115L125.444 31.2165C126.167 31.7953 126.338 31.9003 127.162 32.411C127.819 32.7742 127.971 32.8394 128.71 33.1572L128.775 33.1827C128.775 33.1544 128.769 33.1203 128.767 33.0919C128.966 32.9813 129.107 32.9331 130.251 32.5756C135.22 31.0236 138.916 29.2929 141.237 27.4373C145.394 24.1093 145.15 21.272 145.046 20.0605L145.004 19.7882C144.883 19.0817 144.869 19.0335 144.512 17.8361C144.279 17.1609 144.256 17.1183 143.716 16.0175C143.368 15.3791 143.326 15.3224 142.64 14.3577M144.973 24.0242L144.995 23.9022C144.478 26.8926 141.555 31.0236 130.574 33.7275L130.664 33.7474C130.9 33.7956 130.917 33.7984 131.352 33.8694C131.555 33.9006 131.577 33.9006 131.951 33.9431C132.073 33.9545 132.255 33.9677 132.496 33.9828C132.671 33.9914 132.676 33.9914 133.019 33.9999C133.135 33.9999 133.311 33.997 133.545 33.9914C133.646 33.9885 133.784 33.98 133.885 33.9743C134.86 33.8892 138.278 33.4012 141.319 30.7399C141.613 30.4637 142.018 30.024 142.533 29.4206C142.983 28.8446 143.019 28.785 143.635 27.7721C143.978 27.1479 143.997 27.1026 144.456 25.9648C144.695 25.2952 144.697 25.2697 144.976 24.0242" fill="#0ea5e9"/>
<path d="M131.203 4.67706C130.734 6.77945 132.283 9.01235 132.983 9.89189C132.114 7.53982 132.89 4.89269 133.958 2.70802C134.36 1.92778 134.765 1.05958 135.484 0.526184C135.484 0.526184 131.805 1.98452 131.203 4.67706Z" fill="#0ea5e9"/>
<path d="M135.484 0.526184C134.939 1.20996 134.68 2.07531 134.357 2.88109C133.477 5.20195 132.713 7.59373 133.165 10.1132C133.255 10.2182 133.309 10.2778 133.309 10.2778C133.309 10.2778 136.988 8.81942 137.589 6.12688C138.191 3.43435 135.481 0.526184 135.481 0.526184H135.484Z" fill="#0ea5e9"/>
</svg>
