<?xml version="1.0" encoding="UTF-8"?>
<svg id="_レイヤー_2" xmlns="http://www.w3.org/2000/svg" version="1.1" viewBox="0 0 85.4 118">
  <!-- Generator: Adobe Illustrator 29.0.0, SVG Export Plug-In . SVG Version: 2.1.0 Build 186)  -->
  <defs>
    <style>
      .st0 {
        fill: #fff;
      }
    </style>
  </defs>
  <g id="_レイヤー_1-2">
    <g>
      <path class="st0" d="M0,71.8c.1-1.2.3-2.8.5-4,.9-4.4,1-4.5,1.8-6.9,1.6-4,1.7-4.2,2.9-6.4l.6-1.1c1.2-1.4,3.2-2.2,10.8-4.4,29-8.2,28.8-13.7,26.3-15.1h.4c9.5.8,14.2,6.1,5.9,13.7-8.8,7.9-26.3,14.1-37.9,18.2-7.3,2.6-10.9,3.9-11.2,6.1M7.5,99.5c-.8-1.4,1.1-2.2,10.7-6,50.1-19.7,66.6-37.7,49.1-53.3-5.9-3.2-9.8-4.2-15.1-5.4,3.4,1.2,30.9,13-37.3,39.1-10.9,4.2-14.2,5.4-14.4,8l.5,2.7c.6,2.4.6,2.6,2.1,6.7,1,2.3,1,2.5,3.2,6.2l1.3,1.9M76.7,48.8c-1-1.3-2.5-2.9-3.6-4.1,8.2,8.4,20,30.6-49,56.3-9.8,3.6-10.2,3.9-10.8,5.1,0,0,.1.2.2.3l2,1.8c2.6,2,3.2,2.4,6.1,4.2,2.3,1.3,2.9,1.5,5.5,2.6h.2s0-.1,0-.2c.7-.4,1.2-.6,5.3-1.8,17.7-5.5,30.8-11.6,39.1-18.1,14.8-11.7,13.9-21.7,13.6-26l-.2-1c-.4-2.5-.5-2.7-1.8-6.9-.8-2.4-.9-2.5-2.8-6.4-1.2-2.2-1.4-2.5-3.8-5.8M85,82.8v-.4c-1.8,10.5-12.2,25.1-51.2,34.6h.3c.8.2.9.2,2.5.5.7.1.8.1,2.1.3.4,0,1.1,0,1.9.1.6,0,.6,0,1.9,0,.4,0,1,0,1.9,0,.4,0,.8,0,1.2,0,3.5-.3,15.6-2,26.5-11.4,1-1,2.5-2.5,4.3-4.7,1.6-2,1.7-2.2,3.9-5.8,1.2-2.2,1.3-2.4,2.9-6.4.8-2.4.9-2.4,1.8-6.8"/>
      <g>
        <path class="st0" d="M36,14.6c-1.7,7.4,3.8,15.3,6.3,18.4-3.1-8.3-.3-17.6,3.5-25.3C47.2,4.9,48.7,1.9,51.2,0,51.2,0,38.1,5.1,36,14.6Z"/>
        <path class="st0" d="M51.2,0c-1.9,2.4-2.9,5.5-4,8.3-3.1,8.2-5.8,16.6-4.2,25.5.3.4.5.6.5.6,0,0,13.1-5.1,15.2-14.6C60.8,10.3,51.2,0,51.2,0h0Z"/>
      </g>
    </g>
  </g>
</svg>